<svg width="129" height="39" viewBox="0 0 129 39" fill="none" xmlns="http://www.w3.org/2000/svg">
<g clip-path="url(#clip0_4_218)">
<path d="M19.6842 0.431091C9.53822 0.431091 1.22645 8.15496 0.436615 17.9708L10.7887 22.1966C11.6658 21.6043 12.7255 21.2573 13.8655 21.2573C13.9676 21.2573 14.0694 21.2616 14.1702 21.2663L18.7739 14.6783C18.7739 14.6468 18.7739 14.6162 18.7739 14.5852C18.7739 10.6198 22.041 7.3937 26.0579 7.3937C30.0743 7.3937 33.3414 10.6198 33.3414 14.5852C33.3414 18.5506 30.0743 21.7771 26.0579 21.7771C26.0024 21.7771 25.9474 21.7771 25.8924 21.7728L19.3266 26.3982C19.331 26.4822 19.3332 26.568 19.3332 26.6534C19.3332 29.6303 16.8807 32.0512 13.8659 32.0512C11.2196 32.0512 9.00687 30.1864 8.50564 27.7168L1.10201 24.6968C3.39422 32.7008 10.8424 38.569 19.6842 38.569C30.3515 38.569 38.9986 30.0312 38.9986 19.5007C38.9986 8.96839 30.3511 0.431091 19.6842 0.431091Z" fill="white"/>
<path d="M12.5399 29.3652L10.1674 28.3975C10.5878 29.2617 11.3152 29.9855 12.281 30.383C14.3689 31.2416 16.7759 30.2635 17.6461 28.2005C18.0674 27.203 18.0701 26.1016 17.6522 25.1015C17.2353 24.101 16.4485 23.3208 15.4369 22.9044C14.4331 22.4918 13.3577 22.5069 12.4129 22.8591L14.8636 23.8596C16.4035 24.4933 17.1318 26.2391 16.49 27.7595C15.8495 29.2803 14.0799 29.9993 12.5399 29.3652Z" fill="white"/>
<path d="M30.9104 14.5852C30.9104 11.9432 28.7334 9.79346 26.057 9.79346C23.381 9.79346 21.2036 11.9432 21.2036 14.5852C21.2036 17.2277 23.381 19.3765 26.057 19.3765C28.7334 19.3765 30.9104 17.2272 30.9104 14.5852ZM22.4191 14.577C22.4191 12.5889 24.0516 10.9776 26.0653 10.9776C28.0789 10.9776 29.7114 12.5889 29.7114 14.577C29.7114 16.5651 28.0789 18.1764 26.0653 18.1764C24.0516 18.1764 22.4191 16.5647 22.4191 14.577Z" fill="white"/>
<path d="M59.6254 13.4782L58.3313 15.724C57.3346 15.0365 55.9837 14.6227 54.8044 14.6227C53.4566 14.6227 52.6226 15.1736 52.6226 16.1603C52.6226 17.3591 54.1041 17.638 56.3059 18.4182C58.6728 19.2446 60.0332 20.2158 60.0332 22.356C60.0332 25.2843 57.7009 26.9288 54.3486 26.9288C52.7148 26.9288 50.7439 26.5124 49.2289 25.6024L50.1728 23.1125C51.4036 23.7544 52.8759 24.135 54.1883 24.135C55.9575 24.135 56.7984 23.4906 56.7984 22.5379C56.7984 21.4478 55.5161 21.1201 53.4461 20.4434C51.0871 19.6657 49.4524 18.6454 49.4524 16.2767C49.4524 13.6053 51.6193 12.0712 54.7371 12.0712C56.9102 12.0712 58.6566 12.751 59.6254 13.4782Z" fill="white"/>
<path d="M66.6946 26.6827V14.8977H62.2718V12.3173H74.1515V14.8977H69.7417V26.6827H66.6946Z" fill="white"/>
<path d="M86.4063 18.1268V20.7072H80.575V24.0786H87.3407V26.6827H77.5287V12.3173H87.3407V14.8899H80.575V18.1268H86.4063Z" fill="white"/>
<path d="M94.1418 23.8936L93.1786 26.6831H89.9844L95.4398 12.3177H98.507L104.117 26.6827H100.815L99.8304 23.8932H94.1418V23.8936ZM96.9562 15.7443L94.9692 21.496H98.9843L96.9562 15.7443Z" fill="white"/>
<path d="M114.053 26.2641L110.136 17.9449V26.6827H107.218V12.3173H110.13L115.02 22.6871L119.736 12.3173H122.673V26.6827H119.755V17.8699L115.773 26.2641H114.053Z" fill="white"/>
<path d="M128.563 14.1295C128.563 15.3641 127.626 16.1336 126.551 16.1336C125.472 16.1336 124.533 15.3641 124.533 14.1295C124.533 12.8954 125.472 12.1311 126.551 12.1311C127.627 12.1311 128.563 12.8954 128.563 14.1295ZM124.871 14.1295C124.871 15.1624 125.625 15.8111 126.551 15.8111C127.474 15.8111 128.225 15.1624 128.225 14.1295C128.225 13.0937 127.474 12.4548 126.551 12.4548C125.627 12.4548 124.871 13.1014 124.871 14.1295ZM126.579 13.1083C127.101 13.1083 127.276 13.3808 127.276 13.6752C127.276 13.945 127.114 14.1261 126.917 14.2183L127.385 15.0835H127.002L126.607 14.3166H126.201V15.0835H125.882V13.1083H126.579ZM126.204 14.0274H126.559C126.789 14.0274 126.925 13.8847 126.925 13.7054C126.925 13.5243 126.828 13.4079 126.558 13.4079H126.204V14.0274H126.204Z" fill="white"/>
</g>
<defs>
<clipPath id="clip0_4_218">
<rect width="129" height="39" fill="white"/>
</clipPath>
</defs>
</svg>
